<svg xmlns="http://www.w3.org/2000/svg" viewBox="0 0 2280 529.76" height="53" width="229">
  <defs>
    <style>
      .cls-1 {
        fill: #a90064;
      }

      .cls-2 {
        fill: #43596d;
      }
    </style>
  </defs>
  <title>alzprotect-simple-rvb</title>
  <g id="Calque_2" data-name="Calque 2">
    <g id="Calque_1-2" data-name="Calque 1">
      <g>
        <path class="cls-1" d="M1468.48,53.72h-76.87l-17.67,34.37h94.54V342c0,33.82,20.32,56,62.21,56,27.1,0,55.43-11.64,77-26.06l-14.17-28.82c-11.7,8.32-30.79,18.85-51.74,18.85-19.09,0-28.33-10-28.33-32.15V88.09h79.18l16-34.37H1468.48Z"/>
        <g>
          <polygon class="cls-2" points="688.09 130.27 478.67 130.27 490.99 165.75 620.34 164.65 478.05 392.48 692.41 392.48 692.41 356.45 550.12 357.56 688.09 130.27"/>
          <path class="cls-2" d="M174.39,89.81H175c3.08,12.19,8,26.6,15.41,45.46L296.36,392.48h47.43L188,26.06H162.7L65.53,255.44H15L0,290.75H50.57L7.47,392.48h45L94.25,290.75h84l15-35.31H108.76l49.62-120.73C165.78,116.41,170.71,103.11,174.39,89.81Z"/>
          <path class="cls-2" d="M815,123.62c-41.88,0-75.76,11.65-95.47,17.74v388.4l45-12.86V389.72c12.32,4.43,27.1,8.31,48.66,8.31,72.68,0,146-48.23,146-139.7C959.11,174.63,903.06,123.62,815,123.62ZM811.28,363.1c-19.1,0-30.8-3.88-46.81-10.52V166.86c13.55-3.88,28.95-6.65,49.89-6.65,53,0,99.17,29.94,99.17,98.68C913.53,323.74,872.26,363.1,811.28,363.1Z"/>
          <path class="cls-2" d="M442.33,361.44c-17.25,0-24-5-24-29.94V0l-45,11.67V349.8c0,27.72,15.4,48.23,51.13,48.23,14.78,0,25.25-2.77,38.8-8.87l-5.54-29.38A64.43,64.43,0,0,1,442.33,361.44Z"/>
          <path class="cls-2" d="M1728.11,123.62c-70.22,0-118.26,56.55-118.26,132.49,0,74.84,44.34,141.92,135.5,141.92,33.88,0,70.84-11.09,91.79-26.61l-13.56-27.72c-17.24,10-44.35,18.85-69,18.85-64.67,0-96.7-44.35-96.7-94.24h186.63v-9.42C1844.52,177.39,1803.25,123.62,1728.11,123.62Zm-69.6,110.32c0-41.57,27.1-75.95,70.22-75.95,44.34,0,67.14,39.36,67.14,75.95Z"/>
          <path class="cls-2" d="M1279.38,123.62c-36.33,0-67.75,12.19-91.16,33.81-25.86,24.4-40.65,60.43-40.65,103.67s14.17,80.38,40.65,104.78c22.8,21.06,54.21,32.15,90.55,32.15,37.57,0,69.6-11.64,92.4-32.71,26.48-24.39,41.26-61,41.26-104.22s-14.78-79.27-40.65-103.67C1348.37,135.81,1317,123.62,1279.38,123.62ZM1280,363.1c-54.2,0-86.85-41-86.85-103.11s31.42-102,86.23-102c56.06,0,87.47,39.92,87.47,102S1334.21,363.1,1280,363.1Z"/>
          <path class="cls-2" d="M1129.72,123.62c-20.94,0-43.12,3.88-83.15,36.59l-6.16-29.94h-37V392.48h45V197.91c18.48-18.3,46.82-31.6,64.07-31.6a81.74,81.74,0,0,1,27.72,4.44l19.09-39.37A60.66,60.66,0,0,0,1129.72,123.62Z"/>
          <path class="cls-2" d="M2007.75,363.1c-59.74,0-95.47-42.68-95.47-100.89,0-59.32,35.73-103.11,96.71-103.11,29.1,0,52.56,7.35,70.47,16.59V137.81c-19.22-8.59-44.4-14.19-68.63-14.19-97.31,0-144.13,68.19-144.13,140.81,0,70.95,46.19,133.6,135.51,133.6,37.57,0,70.83-12.75,92.4-25.5l-14.17-28.83C2062.57,353.68,2039.78,363.1,2007.75,363.1Z"/>
          <path class="cls-2" d="M2265.83,343.14c-11.7,8.32-30.8,18.86-51.74,18.86-19.09,0-28.33-10-28.33-32.16V164.65h73.29l16-34.38h-89.31V58.76l-45,13.86v57.65h-45v34.38h45V342c0,33.82,20.32,56,62.21,56,27.09,0,55.43-11.64,77-26Z"/>
        </g>
      </g>
    </g>
  </g>
</svg>
