<svg xmlns="http://www.w3.org/2000/svg" viewBox="0 0 2280 278.72" height="53" width="434">
  <defs>
    <style>
      .cls-1, .cls-3 {
        fill: #a90064;
      }

      .cls-2 {
        fill: #43596d;
      }

      .cls-3 {
        stroke: #a90064;
        stroke-miterlimit: 10;
        stroke-width: 6.1px;
      }
    </style>
  </defs>
  <title>alzprotect-allonge-rvb</title>
  <g id="Calque_2" data-name="Calque 2">
    <g id="Calque_1-2" data-name="Calque 1">
      <g>
        <g>
          <path class="cls-1" d="M2280,205.73V155.49h-9.16v28c0,2.22,0,5.12.16,7.32h-.16a68.54,68.54,0,0,0-5-7L2244,155.49h-9.39v50.24h9.24V176.15c0-2.36-.08-5-.23-6.71h.15c1.38,2.14,2.82,4,5,6.86l22.76,29.43Zm-62.32-25c0,11.39-6.56,18.18-15.89,18.18s-16-6.79-16-18.18,6.56-18.1,16-18.1c9.63,0,15.89,7.1,15.89,18.1m9.85-.15c0-7-2.14-13.29-6.34-17.88-4.5-5-11.22-7.78-19.32-7.78a25.3,25.3,0,0,0-18.48,7.33,26.3,26.3,0,0,0-7.26,18.79c0,7.87,2.83,14.67,7.94,19.25,4.43,4,10.47,6.18,17.8,6.18a25.49,25.49,0,0,0,18.48-7.25c4.66-4.58,7.18-11.23,7.18-18.64m-58.43-25.12h-9.24v50.24h9.24Zm-13.67,0h-39.86v7.7h14.59v42.54h9.31V163.19h13.74Zm-53,30.09h-12.22l4.35-11.68a41,41,0,0,0,1.84-6.11h.07a54.53,54.53,0,0,0,1.91,6.26Zm17.72,20.15-20.24-50.55h-6.72l-19.55,50.55h9.08l4.66-12.59h17.95l5,12.59Zm-62-35a8.12,8.12,0,0,1-8.34,8.14h-4.66V163.27h4.59c5.73,0,8.41,3.34,8.41,7.45m15,35c-7.71-12.82-12.75-21.53-15-22.83v-.07c4.72-2,9.31-6.48,9.31-13.17,0-7.69-4.89-14.17-17.95-14.17h-13.59v50.24h9.23V185.88h4.28c1.92.61,5.43,6.88,13.22,19.85Zm-44.67,0V198h-18.8V183.89H2026v-7.7H2009.7v-13H2026l2.52-7.7h-28v50.24Zm-37.43,0V155.49h-9.15v28c0,2.22,0,5.12.15,7.32h-.15a68.91,68.91,0,0,0-5-7L1955,155.49h-9.39v50.24h9.24V176.15c0-2.36-.08-5-.23-6.71h.15c1.38,2.14,2.82,4,5,6.86l22.76,29.43Zm-52.85,0V198h-18.79V183.89h16.26v-7.7h-16.26v-13h16.26l2.53-7.7h-28v50.24Zm-36.66-4V180.38h-9.23v17.11a19.68,19.68,0,0,1-7.95,1.38c-11,0-17.65-7.94-17.65-18.49,0-9.7,5.65-17.8,18.87-17.8a29.66,29.66,0,0,1,13.74,3.59l.16-8.63a42.93,42.93,0,0,0-14.82-2.59c-16.81,0-28,11.22-28,26.19,0,14.29,9.69,25.36,25.42,25.36a41,41,0,0,0,19.48-4.73m-50,4V198h-18.79V183.89h16.27v-7.7h-16.27v-13h16.27l2.52-7.7h-28v50.24Zm-44.9-25.38c0,9.3-5,17.6-18.19,17.6h-5.88V163.27h5.8c12.23,0,18.27,7,18.27,17.08m9.84-.16c0-14.71-9.62-24.7-27.87-24.7h-15.27v50.24h14.65c17.8,0,28.49-10.52,28.49-25.54m-60,.57c0,11.39-6.56,18.18-15.88,18.18s-16-6.79-16-18.18,6.57-18.1,16-18.1c9.62,0,15.88,7.1,15.88,18.1m9.85-.15c0-7-2.14-13.29-6.33-17.88-4.51-5-11.23-7.78-19.33-7.78a25.3,25.3,0,0,0-18.48,7.33,26.3,26.3,0,0,0-7.26,18.79c0,7.87,2.83,14.67,7.94,19.25,4.43,4,10.47,6.18,17.8,6.18a25.49,25.49,0,0,0,18.48-7.25c4.66-4.58,7.18-11.23,7.18-18.64m-66.67-9.89a8.11,8.11,0,0,1-8.32,8.14h-4.67V163.27h4.59c5.73,0,8.4,3.34,8.4,7.45m15,35c-7.71-12.82-12.74-21.53-15-22.83v-.07c4.73-2,9.31-6.48,9.31-13.17,0-7.69-4.88-14.17-17.94-14.17h-13.59v50.24h9.23V185.88H1691c1.91.61,5.42,6.88,13.21,19.85Zm-46.82-18.91V155.49h-9.23v31.64c0,3.51-.76,6.33-2.67,8.39s-4.9,3.12-9.17,3.12c-3.67,0-6.65-1.07-8.56-3.12a12.79,12.79,0,0,1-3-8.85V155.49h-9.23v31.79c0,5.57,1.37,10.83,5,14.26,3.35,3.28,8.55,5,15.65,5,7.49,0,12.68-2.06,16.2-5.57s5-8.39,5-14.11m-49.26,18.91V198h-18.79V183.89h16.27v-7.7h-16.27v-13h16.27l2.52-7.7h-28v50.24Zm-37.42,0V155.49h-9.16v28c0,2.22,0,5.12.15,7.32h-.15a68.91,68.91,0,0,0-5-7l-21.92-28.29h-9.39v50.24H1545V176.15c0-2.36-.08-5-.23-6.71h.15c1.38,2.14,2.84,4,5,6.86l22.77,29.43Z"/>
          <path class="cls-2" d="M1498.53,170.72a8.11,8.11,0,0,1-8.33,8.14h-4.66V163.27h4.58c5.74,0,8.41,3.35,8.41,7.45m15,35c-7.71-12.83-12.75-21.54-15-22.84v-.07c4.73-2,9.31-6.48,9.31-13.17,0-7.69-4.89-14.17-17.95-14.17H1476.3v50.25h9.24V185.88h4.28c1.9.61,5.42,6.88,13.21,19.86Zm-54.15-25c0,11.39-6.56,18.18-15.89,18.18s-16-6.79-16-18.18,6.56-18.1,16-18.1c9.63,0,15.89,7.11,15.89,18.1m9.85-.15c0-7-2.14-13.29-6.33-17.87-4.51-5-11.23-7.79-19.33-7.79a25.3,25.3,0,0,0-18.48,7.33,26.29,26.29,0,0,0-7.25,18.79c0,7.87,2.82,14.67,7.93,19.25,4.43,4,10.47,6.18,17.8,6.18a25.49,25.49,0,0,0,18.48-7.25c4.66-4.58,7.18-11.23,7.18-18.64m-55.76-25.12h-28.1v50.25h9.24V184h16.19l-.08-7.62h-16.11V163.19H1411Z"/>
        </g>
        <path class="cls-2" d="M2215.39,105.66c0-15.66-21.77-15.13-21.77-24.45,0-3.36,3.21-5.12,7.26-5.12s7.87,1.38,11.76,3.52l.15-8.25a26,26,0,0,0-12.37-2.82c-10.54,0-16.42,6.33-16.42,13.81a13,13,0,0,0,3.28,9c6.11,6.88,18.34,8.18,18.34,15.36,0,4.2-4.43,5.8-8.33,5.8a19.92,19.92,0,0,1-11.38-3.82l-3.74,6.8a26.88,26.88,0,0,0,15.5,4.58c9.93,0,17.72-5.57,17.72-14.43m-40.1,13.66V69.08h-9.16v28c0,2.21,0,5.11.16,7.32h-.16a67.46,67.46,0,0,0-5-7l-21.93-28.29h-9.39v50.24h9.24V89.74c0-2.36-.08-5-.23-6.71h.15c1.38,2.13,2.83,4,5,6.86l22.76,29.43Zm-62.32-25c0,11.39-6.56,18.18-15.89,18.18s-16-6.79-16-18.18,6.57-18.11,16-18.11c9.63,0,15.89,7.11,15.89,18.11m9.85-.15c0-7-2.14-13.29-6.33-17.88-4.51-5-11.23-7.78-19.33-7.78a25.3,25.3,0,0,0-18.48,7.33,26.3,26.3,0,0,0-7.26,18.79c0,7.87,2.83,14.67,7.94,19.25,4.43,4,10.47,6.18,17.8,6.18a25.49,25.49,0,0,0,18.48-7.25c4.66-4.58,7.18-11.23,7.18-18.64m-58.43-25.12h-9.23v50.24h9.23Zm-13.67,0h-39.86v7.7h14.59v42.54h9.31V76.78h13.74Zm-45.44,31.33V69.08H1996v31.63c0,3.52-.76,6.34-2.67,8.39s-4.89,3.13-9.17,3.13c-3.67,0-6.65-1.07-8.56-3.13a12.75,12.75,0,0,1-3-8.84V69.08h-9.23v31.79c0,5.56,1.37,10.83,5,14.25,3.36,3.29,8.55,5,15.66,5,7.48,0,12.68-2.07,16.19-5.57s5-8.39,5-14.11m-46.74,18.91v-7.78h-18V69.08h-9.23v50.24Zm-44.14-25c0,11.39-6.58,18.18-15.9,18.18s-16-6.79-16-18.18,6.57-18.11,16-18.11c9.63,0,15.9,7.11,15.9,18.11m9.84-.15c0-7-2.14-13.29-6.34-17.88-4.49-5-11.22-7.78-19.32-7.78a25.34,25.34,0,0,0-18.49,7.33,26.32,26.32,0,0,0-7.24,18.79c0,7.87,2.82,14.67,7.94,19.25,4.42,4,10.46,6.18,17.79,6.18a25.52,25.52,0,0,0,18.49-7.25c4.65-4.58,7.17-11.23,7.17-18.64m-55.75,11.46c0-15.66-21.77-15.13-21.77-24.45,0-3.36,3.21-5.12,7.26-5.12s7.87,1.38,11.76,3.52l.15-8.25a26,26,0,0,0-12.37-2.82c-10.54,0-16.41,6.33-16.41,13.81a13,13,0,0,0,3.27,9c6.11,6.88,18.34,8.18,18.34,15.36,0,4.2-4.44,5.8-8.33,5.8a19.92,19.92,0,0,1-11.38-3.82l-3.74,6.8a26.88,26.88,0,0,0,15.5,4.58c9.94,0,17.72-5.57,17.72-14.43m-54.31,9.69-2.52-6.64a25.35,25.35,0,0,1-12.37,3.37c-10.39,0-16.8-7.87-16.8-18,0-9.48,5.8-18,17.49-18a23.79,23.79,0,0,1,12.75,3.59l.08-8.39c-3-1.68-7.72-2.75-13.06-2.75-16.58,0-27.26,11.68-27.26,26.12s9.31,25.43,25.35,25.43a30.82,30.82,0,0,0,16.34-4.74m-48.72-46.27h-9.24v50.24h9.24Zm-13.67,0h-39.86v7.7h14.58v42.54h9.31V76.78h13.75Zm-45.45,31.33V69.08h-9.23v31.63c0,3.52-.77,6.34-2.67,8.39s-4.9,3.13-9.17,3.13c-3.67,0-6.65-1.07-8.56-3.13a12.75,12.75,0,0,1-3-8.84V69.08h-9.24v31.79c0,5.56,1.38,10.83,5,14.25,3.36,3.29,8.56,5,15.66,5,7.49,0,12.68-2.07,16.19-5.57s5-8.39,5-14.11m-49.26,18.91v-7.7h-18.79V97.48h16.27v-7.7h-16.27v-13h16.27l2.52-7.7h-28v50.24Zm-43.83-33.87c0,5.56-3,9.06-9.56,9.06h-2.9V76.86h2.75c6.5,0,9.71,3.72,9.71,8.59m9.31-.22c0-10.51-7.18-16.15-18.1-16.15h-12.9v50.24h9.23V101.76h2.52c14.29,0,19.25-9.53,19.25-16.53m-53.62,13.94h-12.22l4.36-11.69a40.52,40.52,0,0,0,1.83-6.11h.08a52,52,0,0,0,1.91,6.26Zm17.73,20.15-20.25-50.55h-6.72l-19.55,50.55h9.09l4.66-12.6h17.95l5,12.6Zm-62-35a8.11,8.11,0,0,1-8.33,8.14h-4.67V76.86h4.59c5.73,0,8.41,3.34,8.41,7.45m15,35c-7.71-12.83-12.75-21.53-15-22.83v-.08c4.73-2,9.31-6.47,9.31-13.16,0-7.69-4.88-14.17-18-14.17h-13.59v50.24h9.23V99.46h4.29c1.91.62,5.43,6.88,13.21,19.86Zm-44.68,0v-7.7h-18.79V97.48h16.27v-7.7h-16.27v-13h16.27l2.52-7.7h-28v50.24Zm-37.43,0V69.08h-9.23v20.7H1424V69.08h-9.24v50.24H1424V97.78h24.37v21.54Zm-47.27-50.24h-39.86v7.7H1385v42.54h9.31V76.78h13.74Z"/>
      </g>
      <path class="cls-1" d="M772.61,28.27H732.17l-9.29,18.08h49.73V180c0,17.79,10.7,29.46,32.73,29.46,14.27,0,29.17-6.13,40.51-13.71l-7.45-15.17c-6.16,4.38-16.2,9.92-27.22,9.92-10,0-14.91-5.25-14.91-16.92V46.35h41.66l8.43-18.08H772.61Z"/>
      <g>
        <polygon class="cls-2" points="362.03 68.54 251.84 68.54 258.33 87.21 326.38 86.63 251.52 206.5 364.3 206.5 364.3 187.54 289.44 188.12 362.03 68.54"/>
        <path class="cls-2" d="M91.75,47.25h.33a204.12,204.12,0,0,0,8.1,23.92L155.92,206.5h25l-82-192.79H85.6L34.48,134.4H7.89L0,153H26.6L3.93,206.5H27.59l22-53.52h44.2l7.88-18.58H57.22L83.33,70.87A217.28,217.28,0,0,0,91.75,47.25Z"/>
        <path class="cls-2" d="M428.79,65c-22,0-39.87,6.13-50.24,9.34V278.72L402.21,272V205a71.62,71.62,0,0,0,25.6,4.37c38.24,0,76.81-25.37,76.81-73.49C504.62,91.88,475.13,65,428.79,65Zm-2,126c-10,0-16.2-2-24.63-5.54V87.79a91.71,91.71,0,0,1,26.25-3.5c27.87,0,52.18,15.75,52.18,51.92C480.64,170.33,458.92,191,426.84,191Z"/>
        <path class="cls-2" d="M232.73,190.17c-9.08,0-12.64-2.63-12.64-15.76V0L196.43,6.14V184c0,14.59,8.1,25.37,26.9,25.37,7.77,0,13.28-1.45,20.41-4.66l-2.91-15.46A33.67,33.67,0,0,1,232.73,190.17Z"/>
        <path class="cls-2" d="M909.22,65c-37,0-62.23,29.75-62.23,69.71,0,39.38,23.34,74.66,71.3,74.66,17.82,0,37.27-5.83,48.29-14l-7.13-14.59c-9.08,5.25-23.34,9.92-36.3,9.92-34,0-50.88-23.33-50.88-49.58h98.2v-5C970.47,93.33,948.75,65,909.22,65Zm-36.63,58c0-21.87,14.27-40,36.95-40,23.33,0,35.32,20.71,35.32,40Z"/>
        <path class="cls-2" d="M673.13,65c-19.12,0-35.65,6.42-48,17.79-13.61,12.84-21.38,31.79-21.38,54.54s7.45,42.3,21.38,55.13c12,11.08,28.52,16.91,47.64,16.91,19.77,0,36.62-6.12,48.62-17.2,13.93-12.83,21.71-32.09,21.71-54.84s-7.78-41.7-21.39-54.54C709.42,71.46,692.89,65,673.13,65Zm.32,126c-28.52,0-45.69-21.58-45.69-54.25s16.53-53.67,45.37-53.67c29.49,0,46,21,46,53.67S702,191,673.45,191Z"/>
        <path class="cls-2" d="M594.38,65c-11,0-22.68,2-43.75,19.25l-3.24-15.75H528v138H551.6V104.13c9.73-9.63,24.64-16.63,33.71-16.63a43.16,43.16,0,0,1,14.58,2.33l10.05-20.7A31.82,31.82,0,0,0,594.38,65Z"/>
        <path class="cls-2" d="M1056.34,191c-31.43,0-50.23-22.46-50.23-53.08,0-31.21,18.8-54.25,50.88-54.25a79.9,79.9,0,0,1,37.08,8.73V72.51A92.17,92.17,0,0,0,1058,65c-51.21,0-75.84,35.88-75.84,74.09,0,37.33,24.31,70.28,71.3,70.28A98.11,98.11,0,0,0,1102,196l-7.45-15.17A75.1,75.1,0,0,1,1056.34,191Z"/>
        <path class="cls-2" d="M1192.13,180.54c-6.16,4.38-16.21,9.92-27.22,9.92-10.05,0-14.91-5.25-14.91-16.92V86.63h38.56L1197,68.54h-47V30.92l-23.66,7.29V68.54h-23.66V86.63h23.66V180c0,17.79,10.7,29.45,32.73,29.45,14.26,0,29.17-6.12,40.51-13.7Z"/>
      </g>
      <line class="cls-3" x1="1291.73" x2="1291.73" y2="278.72"/>
    </g>
  </g>
</svg>
