<svg xmlns="http://www.w3.org/2000/svg" viewBox="0 0 22.54 24.74" width="25" height="25">
  <defs>
    <style>
      .cls-1 {
        fill: #fff;
      }
    </style>
  </defs>
  <title>ill-people-icon</title>
  <g id="Calque_2" data-name="Calque 2">
    <g id="Calque_1-2" data-name="Calque 1">
      <path id="Tracé_159" data-name="Tracé 159" class="cls-1" d="M22.28,22.35a11.35,11.35,0,0,0-4.11-6.52A11.18,11.18,0,0,0,12,13.46a10.81,10.81,0,0,0-3.67.39A11.38,11.38,0,0,0,.42,21.73,11.1,11.1,0,0,0,0,24.42a1,1,0,0,0,0,.17v.15H22.53v-.31A9.63,9.63,0,0,0,22.28,22.35ZM1.39,23.45l0-.17c0-.17.06-.34.1-.51a9.47,9.47,0,0,1,.76-2.25,10.24,10.24,0,0,1,1.27-2A10,10,0,0,1,5.4,16.71a10.45,10.45,0,0,1,2-1.16,10.26,10.26,0,0,1,1.25-.44,8,8,0,0,1,1-.21l.22,0a1.73,1.73,0,0,1,.32,0h.13l.31,0c.26,0,.52,0,.79,0h0l.45,0c.13,0,.25,0,.38,0a7.13,7.13,0,0,1,1.37.23l.18,0a9.24,9.24,0,0,1,.89.29,9.82,9.82,0,0,1,1.72.85,10.09,10.09,0,0,1,1.25.89,14.4,14.4,0,0,1,1.11,1.1,10.48,10.48,0,0,1,1.39,2.1,10.1,10.1,0,0,1,.92,2.78,2.56,2.56,0,0,0,.05.27v.08H1.39Z"/>
      <path id="Tracé_160" data-name="Tracé 160" class="cls-1" d="M11,12.58a6.68,6.68,0,0,0,1.33-.14,6.19,6.19,0,0,0,5-6.15V6.07a2.77,2.77,0,0,0,0-.5,6.11,6.11,0,0,0-1.18-3A6.37,6.37,0,0,0,11.79.05a6.51,6.51,0,0,0-4.9,1.4A6.18,6.18,0,0,0,5.51,9.57,6.4,6.4,0,0,0,11,12.58Zm-3.42-10A5.34,5.34,0,0,1,9.48,1.51a4.67,4.67,0,0,1,1-.18h.13a3.87,3.87,0,0,1,.48,0,4.77,4.77,0,0,1,1,.11,5.18,5.18,0,0,1,2.5,1.34,5.08,5.08,0,0,1,1.26,2,4.42,4.42,0,0,1,.22,1,4.78,4.78,0,0,1-.2,2.09,5.07,5.07,0,0,1-1.57,2.27,5.45,5.45,0,0,1-1.92,1,4.49,4.49,0,0,1-1.15.16h-.15A5,5,0,0,1,9.23,11,5,5,0,0,1,6.75,9.06,4.67,4.67,0,0,1,5.9,6.67,4.93,4.93,0,0,1,6,5.14,5,5,0,0,1,7.55,2.59Z"/>
    </g>
  </g>
</svg>
