<svg xmlns="http://www.w3.org/2000/svg" viewBox="0 0 30.44 26.17" width="30" height="30">
  <defs>
    <style>
      .cls-1 {
        fill: #43596d;
      }
    </style>
  </defs>
  <title>investor-icon</title>
  <g id="Calque_2" data-name="Calque 2">
    <g id="Calque_1-2" data-name="Calque 1">
      <path id="Tracé_147" data-name="Tracé 147" class="cls-1" d="M29.89,17.58A1.63,1.63,0,0,0,28.54,17h0a2.94,2.94,0,0,1-.42,0,1.8,1.8,0,0,0-.91.22l-.1.05c-.37.16-.73.35-1.08.54-.2.11-.4.22-.61.32L22.8,19.4l-1,.46a.47.47,0,0,0,0-.43l0-.07a4.14,4.14,0,0,0-.3-.5,2.52,2.52,0,0,0-2.09-1.1c-.74,0-1.5,0-2.23,0h-.7a2.06,2.06,0,0,1-1.09-.31c-.23-.13-.45-.29-.67-.44a2.83,2.83,0,0,0-.28-.2l-.48-.34-1.16-.8a4.32,4.32,0,0,0-2.24-.83c-.46,0-.92,0-1.36,0H6.64a.84.84,0,0,0-.51.28.56.56,0,0,0-.17.36.76.76,0,0,0,.68.62h3a5.69,5.69,0,0,1,1.3.09,2.82,2.82,0,0,1,.8.28c.36.22.71.46,1.05.7l0,0,.65.46c.36.26.73.53,1.11.77a3.75,3.75,0,0,0,2.18.65c.7,0,1.41,0,2.11,0h.66a1,1,0,0,1,.29,0,1.18,1.18,0,0,1,.85.81.61.61,0,0,0,.24.33l-.11,0c-.36.06-.72.13-1.08.17s-.84.06-1.25.07h-.15a9.39,9.39,0,0,1-1.91-.13l-.77-.12-.44-.07-.26,0a5.09,5.09,0,0,1-.66-.12l-.57-.11a3.21,3.21,0,0,1-.8-.19.62.62,0,0,0-.56.09.7.7,0,0,0-.34.52.23.23,0,0,0,0,.11l0,0a.69.69,0,0,0,.5.44l.33.09a2.48,2.48,0,0,0,.66.12h.05l.37.08.91.19.69.1.3,0,.35.06a7,7,0,0,0,.8.1,19.68,19.68,0,0,0,2.66,0c.45-.05.89-.12,1.34-.19a4.63,4.63,0,0,0,1.4-.52l.27-.13c.47-.22.93-.45,1.38-.68l.62-.31.77-.38c.6-.29,1.22-.6,1.81-.91a2.7,2.7,0,0,1,1.3-.33.64.64,0,0,1,.64.64.81.81,0,0,1-.41.76l-1.49,1L25.16,22l-1,.64-1.45.91a7.92,7.92,0,0,1-3,1.23,8.47,8.47,0,0,1-1.88.14,13.42,13.42,0,0,1-1.78-.18,5.47,5.47,0,0,1-.82-.21c-.34-.12-.68-.26-1-.4l-.2-.09c-.28-.11-.55-.24-.83-.36l-1-.41-.81-.34c-.49-.2-1-.4-1.47-.62A4,4,0,0,0,8.53,22c-.54,0-1.08,0-1.6,0H6.7a.64.64,0,0,0-.52.22L6,22.4l-.12.18.12.18.1.17a.66.66,0,0,0,.63.31l.54,0c.28,0,.55,0,.83,0a3.15,3.15,0,0,1,1.14.16l.43.17,1.32.53.8.35.63.27c.26.12.53.22.79.33l1.19.5a7.58,7.58,0,0,0,1.3.42,9.86,9.86,0,0,0,2.16.24h.33A8.47,8.47,0,0,0,19.73,26a10.34,10.34,0,0,0,1.88-.54,12.33,12.33,0,0,0,1.79-1l.19-.11c.29-.17.58-.36.86-.55l.45-.29.7-.44,1.18-.76q.87-.55,1.74-1.14l.66-.43a3.09,3.09,0,0,0,.88-.77A1.88,1.88,0,0,0,29.89,17.58Z"/>
      <path id="Tracé_148" data-name="Tracé 148" class="cls-1" d="M7.76,13.2a.56.56,0,0,1,0,.12.75.75,0,0,0,.32.44.41.41,0,0,0,.56,0A1.91,1.91,0,0,0,9,13.41a.35.35,0,0,0,0-.33,1.49,1.49,0,0,1-.14-.55,1.86,1.86,0,0,0-.09-.47,1.53,1.53,0,0,1,0-.3v0c0-.74,0-1.4,0-2.08,0-.16,0-.33.05-.5a5.49,5.49,0,0,1,.1-.57l0-.08c.06-.27.12-.54.2-.8a2.35,2.35,0,0,1,.14-.37L9.43,7A6,6,0,0,1,10.1,5.6a8.75,8.75,0,0,1,1-1.38,8.4,8.4,0,0,1,1.2-1.11,9.3,9.3,0,0,1,2-1.15,7.81,7.81,0,0,1,1.51-.48l.25-.06A3,3,0,0,1,17,1.31a.08.08,0,0,0,.07,0l.34,0a3.35,3.35,0,0,1,.71,0l.52,0a8.32,8.32,0,0,1,2.87.64A8.38,8.38,0,0,1,24,3.53a9.45,9.45,0,0,1,1.44,1.59,9.14,9.14,0,0,1,1.27,2.63A8.16,8.16,0,0,1,27,9a8.94,8.94,0,0,1,0,2.53l0,.15a3.91,3.91,0,0,1-.14.76c0,.13-.07.27-.1.4a2.83,2.83,0,0,1-.13.5l-.1.24a7.92,7.92,0,0,1-.76,1.58.63.63,0,0,0-.13.35.72.72,0,0,0,.48.65.47.47,0,0,0,.17,0,.59.59,0,0,0,.46-.28,6.29,6.29,0,0,0,.73-1.35c.19-.47.35-.95.46-1.31a6.94,6.94,0,0,0,.28-1.11c.06-.4.09-.82.13-1.22,0-.17,0-.34,0-.51l0-.14h-.07a.62.62,0,0,1,0-.13,2.35,2.35,0,0,0,0-.59c0-.18-.05-.36-.08-.54a7.55,7.55,0,0,0-.13-.83,14.64,14.64,0,0,0-.44-1.47,9.64,9.64,0,0,0-1.21-2.26A10.35,10.35,0,0,0,25,2.76a10.16,10.16,0,0,0-2.35-1.65,8.18,8.18,0,0,0-1-.44c-.39-.14-.8-.28-1.22-.39A6.56,6.56,0,0,0,19.35.06Q18.67,0,18,0c-.32,0-.65,0-1,0h-.18a3.08,3.08,0,0,0-.61.06c-.43.09-.81.17-1.2.29a13.35,13.35,0,0,0-1.38.5,11.1,11.1,0,0,0-1.17.64l-.1.05A8.83,8.83,0,0,0,10.81,2.8,11,11,0,0,0,9.36,4.48,10.46,10.46,0,0,0,8.17,6.75c-.12.3-.21.62-.3.93L7.8,7.9a7.34,7.34,0,0,0-.2,1c0,.11,0,.22,0,.33a4.85,4.85,0,0,0,0,.85c0,.15,0,.29,0,.43A11.22,11.22,0,0,0,7.7,13,.66.66,0,0,0,7.76,13.2Z"/>
      <path id="Tracé_149" data-name="Tracé 149" class="cls-1" d="M14.65,8.61a3.73,3.73,0,0,1,.88-1.33,3.87,3.87,0,0,1,3.45-1A3.8,3.8,0,0,1,20.7,7c.17.14.34.28.51.44l.25.22.13.11.18-.37c.08-.17.16-.34.25-.51a.43.43,0,0,0-.11-.54,4,4,0,0,0-1-.73,6.9,6.9,0,0,0-1.09-.44A5.36,5.36,0,0,0,18.08,5a5.12,5.12,0,0,0-3,1,4.61,4.61,0,0,0-1.75,2.33c0,.12-.08.23-.13.35l0,.08H12L11.44,10H13v.6H12l-.57,1.24h1.76a.88.88,0,0,1,0,.15,5.57,5.57,0,0,0,.52,1.17,4.86,4.86,0,0,0,3.44,2.32,8.32,8.32,0,0,0,1.11.1h.06a4.5,4.5,0,0,0,.81-.11l.17,0a5.4,5.4,0,0,0,2.26-1l.05,0v-.9a1.69,1.69,0,0,0,0-.5l-.06-.23-.17.17-.1.12-.17.18a4.31,4.31,0,0,1-1.91,1,4.14,4.14,0,0,1-2.18-.08,3.52,3.52,0,0,1-2-1.47,3.3,3.3,0,0,1-.42-.84h5.08l.05-.08a8.83,8.83,0,0,0,.45-1l.06-.18H14.34V10H20.2a.48.48,0,0,0,.56-.38h0l0,0,0-.07c.06-.13.12-.26.18-.41l.16-.35H14.63A.29.29,0,0,1,14.65,8.61Z"/>
      <path id="Tracé_150" data-name="Tracé 150" class="cls-1" d="M5.58,16.64v-2A1.81,1.81,0,0,0,5,13.29a1.59,1.59,0,0,0-1-.47H.67a.68.68,0,0,0-.64.53A.63.63,0,0,0,.35,14a.92.92,0,0,0,.38.08h3.1a.42.42,0,0,1,.46.38v.82c0,.34,0,.68,0,1v2.63h0V21c0,.2,0,.39,0,.58v2a.48.48,0,0,1-.14.34.44.44,0,0,1-.34.13H.73a.73.73,0,0,0-.7.5.32.32,0,0,0,0,.19.73.73,0,0,0,.7.57H3.94a1,1,0,0,0,.37-.05,1.94,1.94,0,0,0,1.28-1.83C5.58,21.17,5.58,18.87,5.58,16.64Z"/>
      <path id="Tracé_151" data-name="Tracé 151" class="cls-1" d="M1.69,22.44a.67.67,0,0,0,.37.59l0,0a.61.61,0,0,0,.26.08h0A.83.83,0,0,0,3,22.32V21.6H3v-.23a2.71,2.71,0,0,1,0-.29.71.71,0,0,0-.31-.61.62.62,0,0,0-.37-.13.71.71,0,0,0-.61.68v1.42Z"/>
    </g>
  </g>
</svg>
