<svg xmlns="http://www.w3.org/2000/svg" viewBox="0 0 27.82 22.23" width="27" height="27">
  <defs>
    <style>
      .cls-1 {
        fill: #fff;
      }
    </style>
  </defs>
  <title>press-icon</title>
  <g id="Calque_2" data-name="Calque 2">
    <g id="Calque_1-2" data-name="Calque 1">
      <path id="Tracé_152" data-name="Tracé 152" class="cls-1" d="M27.82,1a2.2,2.2,0,0,0,0-.44A.65.65,0,0,0,27.12,0l-.24,0-.35,0-1.64,0h-18c-.46,0-.93,0-1.39,0a2.25,2.25,0,0,0-.63.06.47.47,0,0,0-.36.36,1.56,1.56,0,0,0,0,.68c0,.1,0,.2,0,.3,0,.54,0,1.08,0,1.61,0,.84,0,1.68,0,2.52V11h0v5.63c0,.28,0,.55,0,.82s0,.35,0,.53v.53c0,.27,0,.54,0,.81A1.88,1.88,0,0,1,4,20.5a1.49,1.49,0,0,1-1.82.3,1.79,1.79,0,0,1-.87-1.52c0-.32,0-.65,0-1V15c0-1.12,0-2.24,0-3.36V7c0-.91,0-1.81,0-2.72a.54.54,0,0,0-.45-.57.79.79,0,0,0-.43,0A.59.59,0,0,0,0,4.34l0,.37c0,1,0,2,0,3q0,5.55,0,11.09c0,.18,0,.36,0,.53A3.49,3.49,0,0,0,.4,20.62a3,3,0,0,0,1.13,1.23,2.18,2.18,0,0,0,1.14.35c.41,0,.82,0,1.24,0H24.49a2.9,2.9,0,0,0,2-.53,3,3,0,0,0,1-1.14,2.59,2.59,0,0,0,.23-.73,3.78,3.78,0,0,0,.05-.75c0-.42,0-.85,0-1.28,0-1.34,0-2.69,0-4,0-1.91,0-3.81,0-5.72V5.24c0-.44,0-.87,0-1.31,0-.74,0-1.48,0-2.23C27.8,1.48,27.82,1.25,27.82,1ZM26.55,19.18a1.81,1.81,0,0,1-1,1.65,1.57,1.57,0,0,1-.8.15H5.87a.38.38,0,0,1-.15,0,.38.38,0,0,1-.35-.42.06.06,0,0,1,0,0,.42.42,0,0,1,.06-.21,1.89,1.89,0,0,0,.22-1c0-1.16,0-2.31,0-3.47,0-.21,0-.41,0-.62s0-.25,0-.37c0-.64,0-1.27,0-1.9V10c0-.81,0-1.62,0-2.43,0-.33,0-.66,0-1l0-3.66c0-.29,0-.59,0-.88s.11-.59.5-.67a.92.92,0,0,1,.37,0,8.13,8.13,0,0,0,1.21,0c.77,0,1.54,0,2.32,0H22.59c.66,0,1.33,0,2,0a7.28,7.28,0,0,0,1.32,0,.6.6,0,0,1,.65.54v9.53c0,1.05,0,2.09,0,3.14,0,1.57,0,3.13,0,4.7Z"/>
      <path id="Tracé_153" data-name="Tracé 153" class="cls-1" d="M23.63,10.67l-.51,0H19.7l-2.18,0A.45.45,0,0,0,17,11a.62.62,0,0,0-.07.23,5.82,5.82,0,0,0,0,.59v3.11h0c0,.9,0,1.8,0,2.7,0,.21,0,.42,0,.63a.44.44,0,0,0,.18.32.57.57,0,0,0,.4.09l1,0h1.92l3.23,0a.53.53,0,0,0,.59-.45.24.24,0,0,0,0-.12l0-.79V12.21c0-.24,0-.48,0-.73a1,1,0,0,0-.1-.51A.51.51,0,0,0,23.63,10.67Zm-.49,5.9a3,3,0,0,1,0,.42.47.47,0,0,1-.48.47h-4c-.39,0-.58-.16-.58-.55,0-.7,0-1.4,0-2.1h0v-1.9c0-.13,0-.26,0-.39a1.28,1.28,0,0,1,.1-.43.4.4,0,0,1,.41-.24h4a.57.57,0,0,1,.65.47v.18c0,1.36,0,2.72,0,4.08Z"/>
      <path id="Tracé_154" data-name="Tracé 154" class="cls-1" d="M8.6,4.92a5.46,5.46,0,0,0,.57,0l1.5,0h10.4l2.05,0a2.76,2.76,0,0,0,.57-.06.48.48,0,0,0,.43-.41.62.62,0,0,0-.34-.62,1.63,1.63,0,0,0-.69-.09c-.16,0-.32,0-.49,0H9.31c-.22,0-.44,0-.66,0a.51.51,0,0,0-.49.55h0a.48.48,0,0,0,.42.55Z"/>
      <path id="Tracé_155" data-name="Tracé 155" class="cls-1" d="M20.35,8.32c.94,0,1.88,0,2.82,0a1.81,1.81,0,0,0,.69-.14.44.44,0,0,0,.24-.57.31.31,0,0,0-.05-.1.65.65,0,0,0-.37-.3A1.27,1.27,0,0,0,23,7.19a1.35,1.35,0,0,1-.35,0H11.38l-2.23,0a2.74,2.74,0,0,0-.5,0,.65.65,0,0,0-.51.64.53.53,0,0,0,.53.46,3.39,3.39,0,0,0,.55,0l1.59,0h9.54Z"/>
      <path id="Tracé_156" data-name="Tracé 156" class="cls-1" d="M14.33,17.46c-.2,0-.41,0-.61,0l-.71,0H10.39l-1,0a6,6,0,0,0-.74,0,.48.48,0,0,0-.47.47.61.61,0,0,0,.59.64h3.44l1.67,0h.44a.61.61,0,0,0,.6-.61C14.9,17.7,14.69,17.49,14.33,17.46Z"/>
      <path id="Tracé_157" data-name="Tracé 157" class="cls-1" d="M14.47,14.07l-.22,0H9.69l-.42,0a5.07,5.07,0,0,0-.68,0,.51.51,0,0,0-.31.87.65.65,0,0,0,.48.23h5.56a.67.67,0,0,0,.57-.56A.54.54,0,0,0,14.47,14.07Z"/>
      <path id="Tracé_158" data-name="Tracé 158" class="cls-1" d="M14.28,10.65H11.14v0H9.2c-.2,0-.41,0-.61,0a.6.6,0,0,0-.46.49.54.54,0,0,0,.33.52.52.52,0,0,0,.16.06c.23,0,.46,0,.68,0l.93,0h3.28l.86,0a.62.62,0,0,0,.4-.22.43.43,0,0,0,0-.55A.68.68,0,0,0,14.28,10.65Z"/>
    </g>
  </g>
</svg>
